<svg xmlns="http://www.w3.org/2000/svg" width="20" height="20" viewBox="0 0 20 20" fill="none">
  <path d="M2 3.33333C2 2.59695 2.59695 2 3.33333 2H8C8.73638 2 9.33333 2.59695 9.33333 3.33333V8C9.33333 8.73638 8.73638 9.33333 8 9.33333H3.33333C2.59695 9.33333 2 8.73638 2 8V3.33333Z" fill="#302B3C"/>
  <path d="M2 12C2 11.2636 2.59695 10.6667 3.33333 10.6667H8C8.73638 10.6667 9.33333 11.2636 9.33333 12V16.6667C9.33333 17.403 8.73638 18 8 18H3.33333C2.59695 18 2 17.403 2 16.6667V12Z" fill="#302B3C"/>
  <path d="M10.6667 12C10.6667 11.2636 11.2636 10.6667 12 10.6667H16.6667C17.403 10.6667 18 11.2636 18 12V16.6667C18 17.403 17.403 18 16.6667 18H12C11.2636 18 10.6667 17.403 10.6667 16.6667V12Z" fill="#302B3C"/>
  <path fill-rule="evenodd" clip-rule="evenodd" d="M16.6667 2.66667H12C11.6318 2.66667 11.3333 2.96514 11.3333 3.33333V8C11.3333 8.36819 11.6318 8.66667 12 8.66667H16.6667C17.0349 8.66667 17.3333 8.36819 17.3333 8V3.33333C17.3333 2.96514 17.0349 2.66667 16.6667 2.66667ZM12 2C11.2636 2 10.6667 2.59695 10.6667 3.33333V8C10.6667 8.73638 11.2636 9.33333 12 9.33333H16.6667C17.403 9.33333 18 8.73638 18 8V3.33333C18 2.59695 17.403 2 16.6667 2H12Z" fill="#302B3C"/>
</svg>
