<svg xmlns="http://www.w3.org/2000/svg" width="17" height="16" viewBox="0 0 17 16" fill="none">
  <path fill-rule="evenodd" clip-rule="evenodd" d="M6.84769 2.55961H10.8898C11.1876 2.55961 11.4287 2.3447 11.4287 2.07961C11.4287 1.81451 11.1876 1.59961 10.8898 1.59961H6.84769C6.54992 1.59961 6.30874 1.81451 6.30874 2.07961C6.30874 2.3447 6.54992 2.55961 6.84769 2.55961ZM14.7463 3.19961H2.99086C2.70286 3.19961 2.46875 3.41451 2.46875 3.67961C2.46875 3.9447 2.70286 4.15961 2.99119 4.15961H14.7466C15.0346 4.15961 15.2687 3.9447 15.2687 3.67961C15.2687 3.41451 15.0346 3.19961 14.7463 3.19961ZM10.7887 12.0151V6.22412C10.7887 6.05806 10.6971 5.9048 10.5489 5.82193C10.3997 5.73894 10.2181 5.73894 10.0689 5.82193C9.92036 5.9048 9.82874 6.05806 9.82874 6.22412V12.0151C9.82874 12.2718 10.0436 12.4796 10.3087 12.4796C10.5738 12.4796 10.7887 12.2718 10.7887 12.0151ZM12.9641 5.50361C13.0102 5.28231 13.2211 5.12197 13.4676 5.12062L13.4676 5.12299C13.7142 5.124 13.9271 5.28198 13.9786 5.50227H13.9887V13.827C13.9877 14.1409 13.7105 14.3962 13.3666 14.3996H4.68212C4.51741 14.3979 4.3601 14.3366 4.24524 14.2288C4.13004 14.1214 4.06671 13.9762 4.06873 13.826V5.50361H4.0785C4.12296 5.28163 4.3345 5.12029 4.58174 5.12029C4.82865 5.12029 5.04018 5.28163 5.08465 5.50361H5.09374V13.0603C5.09509 13.2719 5.28305 13.443 5.5148 13.4436H12.5447C12.6545 13.4423 12.7596 13.4015 12.8361 13.3298C12.9132 13.2577 12.9556 13.161 12.954 13.0603V5.50361H12.9641ZM7.90874 6.23152V12.0057C7.90841 12.2667 7.69182 12.4783 7.42436 12.4796C7.15893 12.4766 6.94638 12.265 6.94874 12.0067V6.23253C6.94605 5.97417 7.15893 5.76263 7.42436 5.7596C7.69114 5.76095 7.9074 5.97148 7.90874 6.23152Z" fill="#302B3C"/>
</svg>
