<svg xmlns="http://www.w3.org/2000/svg" width="21" height="20" viewBox="0 0 21 20" fill="none">
  <path d="M3.31013 7.97723C3.51666 7.97723 3.70516 8.05568 3.84824 8.18486C3.96189 8.28748 4.04697 8.42206 4.08963 8.57475L4.11345 8.69246L4.12046 15.6876H16.8787L16.8797 8.79969C16.8797 8.59 16.957 8.39864 17.0843 8.25338C17.2107 8.10902 17.3865 8.01007 17.5848 7.98406C17.8373 7.98343 18.0512 8.05633 18.2093 8.18306C18.3356 8.28437 18.4249 8.41961 18.4688 8.57364L18.4932 8.69245L18.5 16.5102C18.5 16.7199 18.4227 16.9113 18.2955 17.0565C18.1944 17.1719 18.0619 17.2583 17.9115 17.3016L17.7955 17.3258L3.31013 17.3327C3.10359 17.3327 2.91509 17.2542 2.77201 17.125C2.65837 17.0224 2.57329 16.8879 2.53063 16.7352L2.5068 16.6175L2.5 8.79969C2.5 8.57257 2.59068 8.36696 2.73728 8.21812C2.88388 8.06928 3.08642 7.97723 3.31013 7.97723ZM10.4084 2.66602C10.9266 2.66602 11.3529 3.01336 11.4112 3.46082L11.418 3.56575L11.4181 8.81261H14.4468L10.4084 12.9124L6.37008 8.81261H9.39885V3.56575C9.39885 3.06887 9.85038 2.66602 10.4084 2.66602Z" fill="#9D9D9D"/>
</svg>
