<svg xmlns="http://www.w3.org/2000/svg" width="14" height="16" viewBox="0 0 14 16" fill="none">
  <path d="M7.0214 0.0587258C7.12504 -0.00652505 7.25221 -0.0174002 7.36369 0.0261003L7.42838 0.0587258L13.8313 4.0925L13.8695 4.12668L13.9051 4.1688L13.9306 4.20928L13.9527 4.25833L13.9734 4.33883L13.9772 4.39046L13.9716 4.4579L13.9612 4.50279L13.9352 4.56782L13.9095 4.61062L13.8751 4.65288L13.8531 4.67468L13.8238 4.69881L13.8205 4.69907L13.7987 4.71604L7.60604 8.61444L7.6068 14.6655L13.2148 11.2993L13.2286 7.25499L13.235 7.18636C13.268 7.00832 13.4244 6.87378 13.6119 6.87445C13.7993 6.87512 13.9548 7.01078 13.9865 7.18906L13.9924 7.25773L13.9771 11.518L13.9712 11.5838C13.9558 11.6698 13.9113 11.7481 13.8452 11.8053L13.7918 11.8441L7.42144 15.6678L7.36165 15.6972C7.1392 15.7839 6.88874 15.6421 6.84855 15.4068L6.84298 15.3404L6.84221 8.61444L0.651081 4.71604C0.434809 4.57987 0.415147 4.28088 0.592098 4.11511L0.651081 4.06967L7.0214 0.0587258ZM7.22489 0.833336L1.5718 4.39277L7.07671 7.85978L12.865 4.38513L7.22489 0.833336Z" fill="#302B3C"/>
  <path d="M0.472656 4.39227V11.516C0.472656 11.6501 0.543017 11.7744 0.658018 11.8435L7.02834 15.6672C7.28289 15.82 7.6068 15.6367 7.6068 15.3398V8.21603C7.6068 8.08191 7.53644 7.95761 7.42144 7.88858L1.05112 4.06482C0.796569 3.91202 0.472656 4.09538 0.472656 4.39227Z" fill="#302B3C"/>
  <path d="M11.9688 8.24986V10.238C11.9688 10.3068 11.9317 10.3703 11.8718 10.4042L9.58034 11.7005C9.45304 11.7725 9.29535 11.6806 9.29535 11.5343V9.69894C9.29535 9.63345 9.32891 9.57254 9.38425 9.53754L11.6757 8.08847C11.8029 8.00806 11.9688 8.09942 11.9688 8.24986Z" fill="#302B3C"/>
</svg>
